<?xml version="1.0" standalone="no"?><!DOCTYPE svg PUBLIC "-//W3C//DTD SVG 1.1//EN" "http://www.w3.org/Graphics/SVG/1.1/DTD/svg11.dtd"><svg t="1726896973645" class="icon" viewBox="0 0 1069 1024" version="1.1" xmlns="http://www.w3.org/2000/svg" p-id="4641" xmlns:xlink="http://www.w3.org/1999/xlink" width="208.7890625" height="200"><path d="M777.035294 962.258824c-24.094118-67.764706-114.447059-349.364706-114.447059-353.882353 0-3.011765 36.141176-31.623529 79.811765-66.258824 60.235294-45.176471 94.870588-60.235294 135.529412-60.235294 57.223529 0 72.282353 19.576471 34.635294 40.658823-12.047059 6.023529-48.188235 36.141176-81.317647 66.258824l-58.729412 55.717647 21.082353 155.105882c12.047059 99.388235 13.552941 161.129412 4.517647 170.164706s-16.564706 6.023529-21.082353-7.529411zM243.952941 933.647059c6.023529-19.576471 271.058824-210.823529 292.141177-210.82353 19.576471 0 124.988235 75.294118 152.094117 106.917647 21.082353 25.6 42.164706 103.905882 28.611765 103.905883-6.023529 0-48.188235-24.094118-96.376471-54.211765l-84.329411-54.211765-124.988236 61.741177c-123.482353 60.235294-177.694118 76.8-167.152941 46.682353zM240.941176 870.4c0-3.011765 13.552941-52.705882 28.611765-112.941176l28.611765-108.42353-103.905882-114.447059c-99.388235-108.423529-120.470588-143.058824-90.352942-143.058823 12.047059 0 251.482353 173.176471 292.141177 210.823529 21.082353 19.576471-49.694118 200.282353-91.858824 236.42353-34.635294 28.611765-63.247059 43.670588-63.247059 31.623529zM600.847059 411.105882c-46.682353-118.964706-55.717647-170.164706-39.152941-222.870588 9.035294-28.611765 19.576471-52.705882 24.094117-52.705882 6.023529 0 25.6 43.670588 43.670589 96.37647 19.576471 54.211765 43.670588 103.905882 52.705882 111.435294 10.541176 7.529412 81.317647 25.6 158.117647 40.658824 94.870588 18.070588 138.541176 33.129412 138.541176 46.682353 0 16.564706-37.647059 21.082353-180.705882 21.082353H617.411765l-16.564706-40.658824z" fill="#CA7D08" p-id="4642"></path><path d="M200.282353 408.094118l-33.129412-27.105883 69.270588-10.541176c37.647059-4.517647 87.341176-9.035294 108.42353-9.035294 34.635294 0 49.694118-18.070588 114.447059-135.529412 76.8-140.047059 106.917647-171.670588 81.317647-85.835294-9.035294 25.6-31.623529 102.4-49.694118 168.658823l-33.129412 120.470589-112.941176 3.011764c-90.352941 3.011765-117.458824-1.505882-144.564706-24.094117z" fill="#00A6F0" p-id="4643"></path></svg>